<?xml version="1.0" encoding="UTF-8" standalone="no"?>
<svg
   version="1.1"
   width="1024"
   height="1024"
   id="svg244"
   sodipodi:docname="appicon.svg"
   inkscape:version="1.4.2 (f4327f4, 2025-05-13)"
   xmlns:inkscape="http://www.inkscape.org/namespaces/inkscape"
   xmlns:sodipodi="http://sodipodi.sourceforge.net/DTD/sodipodi-0.dtd"
   xmlns="http://www.w3.org/2000/svg"
   xmlns:svg="http://www.w3.org/2000/svg">
  <defs
     id="defs244" />
  <sodipodi:namedview
     id="namedview244"
     pagecolor="#ffffff"
     bordercolor="#000000"
     borderopacity="0.25"
     inkscape:showpageshadow="2"
     inkscape:pageopacity="0.0"
     inkscape:pagecheckerboard="0"
     inkscape:deskcolor="#d1d1d1"
     inkscape:zoom="1.1396484"
     inkscape:cx="599.74636"
     inkscape:cy="512"
     inkscape:window-width="2560"
     inkscape:window-height="1369"
     inkscape:window-x="-8"
     inkscape:window-y="-8"
     inkscape:window-maximized="1"
     inkscape:current-layer="svg244" />
  <path
     d="m 325.35408,147.70923 c 4.57907,4.1e-4 9.15811,-0.0107 13.73717,-0.0201 8.94611,-0.0165 17.89219,-0.0221 26.83831,-0.0232 7.28564,-9.6e-4 14.57126,-0.005 21.85689,-0.0114 20.73196,-0.0176 41.4639,-0.0268 62.19587,-0.0253 1.11425,8e-5 2.22851,1.6e-4 3.37652,2.4e-4 1.11564,8e-5 2.23128,1.7e-4 3.38073,2.5e-4 18.04967,8.1e-4 36.09926,-0.0183 54.14891,-0.0465 18.60762,-0.0289 37.21519,-0.0425 55.82284,-0.0408 10.41672,6.6e-4 20.83335,-0.005 31.25005,-0.0264 8.87426,-0.0184 17.74838,-0.0224 26.62265,-0.009 4.51067,0.006 9.02109,0.007 13.53173,-0.0107 28.53299,-0.1048 57.49535,0.8593 85.17302,8.50374 0.76812,0.20319 1.53624,0.40637 2.32764,0.61572 29.34654,7.83237 54.58045,21.46968 76.67236,42.38428 0.8843,0.81984 1.7686,1.63968 2.67969,2.48437 25.64389,24.5542 42.36977,60.64706 47.32031,95.51563 0.12212,0.82049 0.24424,1.64099 0.37006,2.48635 2.84356,19.54102 3.06567,38.81737 3.02212,58.51552 -0.007,4.62657 0.004,9.2531 0.0119,13.87966 0.0132,9.02665 0.0105,18.05322 0.002,27.07987 -0.007,7.3466 -0.008,14.69317 -0.004,22.03977 4.6e-4,1.05165 9.2e-4,2.10329 0.001,3.18681 9.6e-4,2.13741 0.002,4.27483 0.003,6.41225 0.009,19.97275 -10e-4,39.94546 -0.0174,59.9182 -0.0134,17.07925 -0.0111,34.15843 0.003,51.23767 0.0161,19.90712 0.0223,39.81419 0.0132,59.72131 -9.6e-4,2.1292 -0.002,4.2584 -0.003,6.38759 -4.6e-4,1.04719 -9.3e-4,2.09438 -10e-4,3.17329 -0.003,7.3239 0.002,14.64777 0.009,21.97165 0.008,8.94533 0.006,17.89058 -0.01,26.83589 -0.008,4.5503 -0.0111,9.10046 -0.001,13.65075 0.10777,53.24328 -7.42708,106.66407 -45.31986,147.27295 -1.9084,2.04829 -3.71438,4.15082 -5.51563,6.29297 -11.24747,12.81748 -25.60187,22.02522 -40.5625,29.9375 -0.62826,0.33386 -1.25651,0.66773 -1.90381,1.01172 -24.53802,12.81846 -51.72301,17.97705 -79.09619,19.98828 -1.06903,0.0833 -2.13806,0.1667 -3.23948,0.25258 -9.28121,0.68157 -18.51943,0.89188 -27.82479,0.88113 -1.5627,0.002 -3.12541,0.004 -4.68811,0.007 -4.25063,0.006 -8.50124,0.006 -12.75187,0.005 -4.60138,-2e-4 -9.20274,0.005 -13.80411,0.0101 -8.99805,0.008 -17.99608,0.0111 -26.99413,0.0116 -7.31927,4.8e-4 -14.63854,0.003 -21.95782,0.006 -20.78805,0.009 -41.5761,0.0134 -62.36415,0.0127 -1.1186,-4e-5 -2.2372,-8e-5 -3.38969,-1.2e-4 -1.67997,-6e-5 -1.67997,-6e-5 -3.39387,-1.2e-4 -18.14746,-4.1e-4 -36.2949,0.009 -54.44235,0.0233 -18.66951,0.0144 -37.339,0.0213 -56.00851,0.0204 -10.46716,-3.3e-4 -20.93431,0.002 -31.40147,0.0132 -8.9114,0.009 -17.82277,0.0113 -26.73417,0.004 -4.53908,-0.003 -9.0781,-0.003 -13.61717,0.005 -34.32092,0.062 -34.32092,0.062 -50.38831,-2.25187 -1.86794,-0.21832 -3.7363,-0.43313 -5.60547,-0.64063 -39.37432,-5.03775 -75.68215,-19.60674 -104.39453,-47.35937 -0.86367,-0.81211 -1.72734,-1.62422 -2.61719,-2.46094 -36.05595,-34.70806 -50.26274,-85.6092 -51.4769,-134.31348 -0.0363,-3.95679 -0.0443,-7.91295 -0.0396,-11.86984 -0.002,-1.51718 -0.004,-3.03436 -0.007,-4.55154 -0.006,-4.12503 -0.006,-8.25004 -0.005,-12.37507 2e-4,-4.46652 -0.005,-8.93303 -0.0101,-13.39955 -0.008,-8.73535 -0.0111,-17.4707 -0.0116,-26.20606 -4.8e-4,-7.10946 -0.003,-14.21892 -0.006,-21.32838 -0.009,-20.20428 -0.0134,-40.40856 -0.0127,-60.61285 4e-5,-1.08715 8e-5,-2.17431 1.2e-4,-3.2944 4e-5,-1.0885 8e-5,-2.177 1.2e-4,-3.29848 4.1e-4,-17.61961 -0.009,-35.23921 -0.0233,-52.85882 -0.0144,-18.13843 -0.0213,-36.27684 -0.0204,-54.41527 3.3e-4,-10.16443 -0.002,-20.32883 -0.0132,-30.49325 -0.009,-8.65798 -0.0112,-17.31591 -0.004,-25.97389 0.003,-4.40615 0.003,-8.81224 -0.005,-13.21839 -0.092,-49.33273 -0.092,-49.33273 5.25187,-71.32979 0.28746,-1.27489 0.57492,-2.54977 0.8711,-3.86328 10.3072,-44.67185 36.15661,-82.5971 75.13208,-107.01734 25.78686,-15.58217 53.33742,-22.59747 82.99682,-26.11938 0.96894,-0.12477 0.96894,-0.12477 1.95746,-0.25205 17.65494,-2.23565 35.34795,-2.04874 53.10785,-2.03872 z"
     fill="#de4327"
     id="path2" />
  <path
     d="m 358.9722,212.96797 c 5.38563,3.81024 9.17006,8.37314 11.29687,14.625 0.94253,9.95742 -0.61361,20.05515 -1.8125,29.9375 -0.16795,1.44068 -0.33527,2.88144 -0.50195,4.32227 -1.40673,11.93864 -3.06076,23.82512 -4.68555,35.74023 71.27999,0 142.55999,0 215.99999,0 -2.3802,-27.20632 -2.3802,-27.20632 -7,-54 -0.7635,-9.27062 -0.7403,-17.25931 5,-25 4.657,-5.3126 10.1783,-8.29246 17.1563,-9.3164 7.3253,-0.3998 13.4677,2.2908 19.6562,6.0039 5.8226,6.15529 7.5603,12.20322 8.6875,20.4375 0.126,0.87991 0.252,1.75981 0.3818,2.66638 1.1821,8.37815 2.2074,16.77492 3.1951,25.17786 1.653,14.03343 3.4343,28.04108 5.4231,42.03076 1.8651,13.15083 3.5779,26.31543 5.1875,39.5 0.1026,0.83515 0.2053,1.67031 0.311,2.53076 1.2277,10.0138 2.3504,20.03089 3.2928,30.07593 0.5042,5.26676 1.194,10.48033 2.0212,15.70581 0.1351,0.86899 0.2702,1.73798 0.4094,2.6333 0.1189,0.76297 0.2377,1.52593 0.3601,2.31202 1.2761,8.45785 2.3341,16.94553 3.418,25.42968 0.1017,0.79242 0.2033,1.58484 0.308,2.40128 1.1123,8.68112 2.1909,17.36553 3.2222,26.05665 1.2573,10.59234 2.5755,21.17527 3.9503,31.75301 0.131,1.00846 0.131,1.00846 0.2646,2.0373 0.363,2.79402 0.7263,5.58801 1.0898,8.38197 3.5542,27.32028 6.9498,54.65408 10.1675,82.01599 2.0678,17.57692 4.2249,35.1259 6.8396,52.6309 1.7038,11.49251 3.05,23.01322 4.3152,34.56079 0.8326,7.5945 1.749,15.17031 2.7781,22.74121 0.6908,5.12546 1.328,10.25753 1.9671,15.38965 0.1244,0.99872 0.2488,1.99745 0.377,3.02643 0.5143,4.1327 1.0275,8.26554 1.5407,12.39838 0.381,3.0668 0.7628,6.13351 1.1448,9.20019 0.1874,1.50947 0.1874,1.50947 0.3787,3.04943 0.6455,5.17348 1.3085,10.34393 2.0009,15.51136 0.2059,1.54386 0.2059,1.54386 0.416,3.1189 0.2601,1.94112 0.5233,3.88183 0.7902,5.82202 3.0166,22.53182 3.0166,22.53182 -1.7187,30.11157 -4.64,5.59251 -10.3269,10.08973 -17.6992,11.03907 -10.779,0.012 -16.4504,-1.86512 -24.0898,-9.35938 -5.0638,-6.80729 -5.6019,-14.62786 -6.668,-22.82422 -0.1689,-1.19238 -0.3377,-2.38476 -0.5117,-3.61328 -1.3834,-10.27169 -1.8136,-20.1935 -2.3633,-30.63672 -106.92,0 -213.84,0 -323.99999,0 -0.66,7.26 -1.32,14.52 -2,22 -0.45074,4.29981 -0.914,8.58532 -1.4375,12.875 -0.16339,1.4676 -0.16339,1.4676 -0.33008,2.96485 -1.42054,11.66256 -5.18736,19.01542 -14.16992,26.66015 -5.94193,3.01148 -13.63536,2.24841 -20.0625,1.5 -3.30493,-1.11981 -5.49945,-2.59071 -8,-5 -0.56074,-0.53109 -1.12148,-1.06218 -1.69922,-1.60937 -6.16872,-6.51226 -7.57454,-12.80139 -7.48779,-21.58423 0.40215,-8.1852 1.53708,-16.30517 2.56201,-24.4314 0.33608,-2.71728 0.67011,-5.43481 1.00402,-8.15236 0.22245,-1.80897 0.44573,-3.61783 0.66983,-5.4266 0.66444,-5.38005 1.29139,-10.76235 1.87693,-16.15151 1.4247,-13.06195 3.03745,-26.1025 4.62133,-39.14592 0.26821,-2.20929 0.53606,-4.41863 0.80384,-6.62797 2.07956,-17.15127 4.18047,-34.29919 6.39905,-51.43314 4.31784,-32.43101 4.31784,-32.43101 7.56714,-64.97876 0.48058,-5.90172 1.23586,-11.74466 2.03589,-17.61108 0.83708,-6.20282 1.60592,-12.41423 2.38135,-18.625 0.15948,-1.27672 0.31896,-2.55344 0.48327,-3.86885 0.42356,-3.3929 0.84644,-6.78588 1.26915,-10.17888 0.71801,-5.76256 1.43701,-11.52499 2.1558,-17.28744 0.27133,-2.17547 0.54256,-4.35094 0.81379,-6.52642 1.05793,-8.48311 2.12177,-16.96545 3.19205,-25.447 2.6939,-21.36977 5.29554,-42.74777 7.79047,-64.14173 1.88921,-16.19846 3.85245,-32.38576 5.9129,-48.56335 1.01779,-8.01197 1.97186,-16.02623 2.84268,-24.05553 0.68041,-6.1985 1.46039,-12.38221 2.25083,-18.56752 1.10932,-8.71363 2.08605,-17.43408 2.98437,-26.17187 0.36096,-3.43987 0.72314,-6.87961 1.08545,-10.31934 0.24244,-2.33759 0.47865,-4.67584 0.70898,-7.01465 0.34218,-3.45331 0.70915,-6.90325 1.08057,-10.35351 0.14404,-1.54862 0.14404,-1.54862 0.29099,-3.12851 1.06416,-9.50313 4.36293,-17.65373 11.53323,-24.19181 8.56071,-6.43393 19.45237,-6.14413 28.57422,-1.03125 z"
     fill="#f6f2ee"
     id="path3" />
  <path
     d="m 322.75921,583.92117 c 96.69005,0 193.38005,0 293.00005,0 0.33,4.29 0.66,8.58 1,13 0.99,6.93 1.98,13.86 3,21 1.98,16.5 3.96,33 6,50 -102.96,0 -205.92,0 -312.00005,0 0,-6.58261 0.003,-12.40967 0.73438,-18.82422 0.078,-0.69741 0.15597,-1.39481 0.23631,-2.11335 0.25354,-2.25074 0.51608,-4.50031 0.77931,-6.74993 0.18042,-1.57817 0.36051,-3.15638 0.54029,-4.73462 1.24319,-10.84508 2.55232,-21.68248 3.89721,-32.51538 0.12647,-1.02183 0.12647,-1.02183 0.2555,-2.06431 0.23929,-1.92547 0.48205,-3.85052 0.72497,-5.77554 0.13689,-1.08531 0.27377,-2.17062 0.4148,-3.28882 0.37825,-2.65971 0.89037,-5.29953 1.41723,-7.93383 z"
     fill="#d53a22"
     id="path4" />
  <path
     d="m 343.90146,458.43102 c 86.13,0 172.26,0 261,0 4.0404,28.28246 7.5961,56.6339 11,85 -92.73,0 -185.46,0 -281,0 1.12405,-16.86081 1.12405,-16.86081 1.83203,-22.63672 0.0779,-0.64806 0.15577,-1.29612 0.23601,-1.96382 0.24443,-2.02946 0.49399,-4.05824 0.74446,-6.08696 2.2065,-18.08959 4.17472,-36.19748 6.1875,-54.3125 z"
     fill="#da3f24"
     id="path5" />
  <path
     d="m 355.51414,344.3479 c 75.57002,0 151.14002,0 229.00002,0 2.4452,17.72756 4.8427,35.41094 6.8652,53.18482 0.3948,3.46559 0.7958,6.93044 1.1973,10.39526 0.2555,2.22457 0.5108,4.44918 0.7656,6.67383 0.178,1.53872 0.178,1.53872 0.3597,3.10853 0.1072,0.94718 0.2144,1.89435 0.3249,2.87023 0.1418,1.24113 0.1418,1.24113 0.2864,2.50734 0.1848,2.07954 0.2009,4.17225 0.2009,6.25999 -82.17,0 -164.34,0 -249.00002,0 0.57232,-5.72315 1.14649,-11.4059 1.86719,-17.10547 0.16194,-1.29857 0.32388,-2.59714 0.49072,-3.93506 0.12656,-1.01377 0.12656,-1.01377 0.25568,-2.04803 1.68303,-13.51336 3.15228,-27.03021 4.34686,-40.59577 0.10844,-1.19471 0.21689,-2.38943 0.32861,-3.62036 0.0898,-1.03109 0.17951,-2.06217 0.27198,-3.12451 0.60085,-4.88771 1.55804,-9.72573 2.43896,-14.5708 z"
     fill="#e24729"
     id="path6" />
</svg>
